<svg width="27" height="22" viewBox="0 0 27 22" fill="none" xmlns="http://www.w3.org/2000/svg">
<path id="Vector" d="M25 3H16.3337L12.8663 0.4C12.5196 0.141319 12.0988 0.00107292 11.6663 0H6C5.46957 0 4.96086 0.210714 4.58579 0.585786C4.21071 0.960859 4 1.46957 4 2V4H2C1.46957 4 0.960859 4.21071 0.585786 4.58579C0.210714 4.96086 0 5.46957 0 6V20C0 20.5304 0.210714 21.0391 0.585786 21.4142C0.960859 21.7893 1.46957 22 2 22H21.1112C21.612 21.9993 22.092 21.8001 22.4461 21.4461C22.8001 21.092 22.9993 20.612 23 20.1112V18H25.1112C25.612 17.9993 26.092 17.8001 26.4461 17.4461C26.8001 17.092 26.9993 16.612 27 16.1112V5C27 4.46957 26.7893 3.96086 26.4142 3.58579C26.0391 3.21071 25.5304 3 25 3ZM21 20H2V6H7.66625L11.1337 8.6C11.4804 8.85868 11.9012 8.99893 12.3337 9H21V20ZM25 16H23V9C23 8.46957 22.7893 7.96086 22.4142 7.58579C22.0391 7.21071 21.5304 7 21 7H12.3337L8.86625 4.4C8.51955 4.14132 8.09882 4.00107 7.66625 4H6V2H11.6663L15.1338 4.6C15.4804 4.85868 15.9012 4.99893 16.3337 5H25V16Z" fill="white"/>
</svg>
