<?xml version="1.0" encoding="UTF-8"?>
<svg id="Layer_2" data-name="Layer 2" xmlns="http://www.w3.org/2000/svg" viewBox="0 0 355.94 72.11">
  <defs>
    <style>
      .cls-1, .cls-2, .cls-3, .cls-4 {
        stroke-width: 0px;
      }

      .cls-2 {
        fill: #6993af;
      }

      .cls-3 {
        fill: #3f609d;
      }

      .cls-4 {
        fill: #223792;
      }
    </style>
  </defs>
  <g id="Layer_2-2" data-name="Layer 2">
    <g>
      <g>
        <rect class="cls-2" x="9.35" y="28.04" width="52.08" height="17.36"/>
        <path class="cls-4" d="m8.68,1.34h0c4.79,0,8.68,3.89,8.68,8.68v53.41c0,4.79-3.89,8.68-8.68,8.68h0c-4.79,0-8.68-3.89-8.68-8.68V10.01C0,5.22,3.89,1.34,8.68,1.34Z"/>
        <path class="cls-4" d="m62.09,1.34h0c4.79,0,8.68,3.89,8.68,8.68v53.41c0,4.79-3.89,8.68-8.68,8.68h0c-4.79,0-8.68-3.89-8.68-8.68V10.01c0-4.79,3.89-8.68,8.68-8.68Z"/>
        <path class="cls-4" d="m100.15,64.09h0c0-4.42,3.59-8.01,8.01-8.01h36.05c4.42,0,8.01,3.59,8.01,8.01h0c0,4.42-3.59,8.01-8.01,8.01h-36.05c-4.42,0-8.01-3.59-8.01-8.01Z"/>
        <path class="cls-3" d="m121.51,8.01h0c0-4.42,3.59-8.01,8.01-8.01h30.71c4.42,0,8.01,3.59,8.01,8.01h0c0,4.42-3.59,8.01-8.01,8.01h-30.71c-4.42,0-8.01-3.59-8.01-8.01Z"/>
        <path class="cls-4" d="m121.51,8.01h0c0-4.42,3.59-8.01,8.01-8.01h30.71c4.42,0,8.01,3.59,8.01,8.01h0c0,4.42-3.59,8.01-8.01,8.01h-30.71c-4.42,0-8.01-3.59-8.01-8.01Z"/>
        <path class="cls-4" d="m56.95,4.03h0c3.64-3.12,9.12-2.71,12.24.92l45.05,52.41c3.12,3.64,2.71,9.12-.92,12.24h0c-3.64,3.12-9.12,2.71-12.24-.92L56.03,16.27c-3.12-3.64-2.71-9.12.92-12.24Z"/>
        <path class="cls-4" d="m144.88,28.04h-18.03c-2.95,0-5.34-2.39-5.34-5.34v-1.34c0-2.95,2.39-5.34,5.34-5.34h14.69c4.42,0,8.01-3.59,8.01-8.01s-3.59-8.01-8.01-8.01h-14.02c-12.15,0-22.03,9.88-22.03,22.03s9.88,22.03,22.03,22.03h18.03c2.95,0,5.34,2.39,5.34,5.34v1.34c0,2.95-2.39,5.34-5.34,5.34h-14.69c-4.42,0-8.01,3.59-8.01,8.01s3.59,8.01,8.01,8.01h14.02c12.15,0,22.03-9.88,22.03-22.03s-9.88-22.03-22.03-22.03Z"/>
      </g>
      <g>
        <path class="cls-1" d="m180.65,20.9l-.36-2.4c1.54,0,3.25-.02,5.11-.06,1.86-.04,3.77-.12,5.74-.25,1.96-.13,3.86-.34,5.68-.61l.2,2.18c-1.86.35-3.76.61-5.71.78-1.94.17-3.82.27-5.64.31-1.81.04-3.48.06-5.01.06Zm7.93-14.96c1.28,0,2.42.23,3.42.68.99.46,1.78,1.08,2.34,1.88.57.8.85,1.73.85,2.79s-.28,1.96-.85,2.76c-.57.8-1.35,1.43-2.34,1.88-1,.46-2.14.68-3.42.68s-2.39-.23-3.38-.68c-.99-.46-1.76-1.08-2.33-1.88-.57-.8-.85-1.72-.85-2.76s.28-1.99.85-2.79c.57-.8,1.34-1.43,2.33-1.88.99-.46,2.11-.68,3.38-.68Zm0,2.4c-.73,0-1.37.12-1.94.36-.57.24-1.01.58-1.34,1.02-.33.44-.49.96-.49,1.58s.16,1.11.49,1.55c.33.44.77.78,1.34,1.02.57.24,1.21.36,1.94.36s1.4-.12,1.97-.36c.57-.24,1.01-.58,1.34-1.02s.49-.95.49-1.55-.16-1.14-.49-1.58-.77-.78-1.34-1.02c-.57-.24-1.22-.36-1.97-.36Zm-1.34,11h2.96v10.21h-2.96v-10.21Zm11.25-14.48h2.9v25.51h-2.9V4.85Z"/>
        <path class="cls-1" d="m206.02,7.31h14.82v2.32h-14.82v-2.32Zm7.4,3.43c1.17,0,2.21.19,3.11.57.9.38,1.61.92,2.12,1.6.51.69.77,1.48.77,2.37s-.26,1.71-.77,2.39c-.51.68-1.22,1.21-2.12,1.59-.9.38-1.94.57-3.11.57s-2.18-.19-3.08-.57c-.9-.38-1.61-.91-2.12-1.59-.51-.68-.77-1.47-.77-2.39s.26-1.68.77-2.37c.51-.69,1.22-1.22,2.12-1.6.9-.38,1.93-.57,3.08-.57Zm.03,2.18c-.63,0-1.19.1-1.67.29s-.86.47-1.13.82c-.27.35-.4.77-.4,1.26s.13.91.4,1.27c.27.36.65.64,1.13.82.48.19,1.03.28,1.65.28s1.19-.09,1.67-.28c.48-.19.86-.46,1.13-.82.27-.36.4-.79.4-1.27s-.14-.9-.4-1.26c-.27-.35-.65-.63-1.13-.82s-1.03-.29-1.65-.29Zm-3.1,8.57h16.74v8.54h-16.74v-8.54Zm1.62-16.88h2.93v4.35h-2.93v-4.35Zm12.28,19.23h-11.02v3.88h11.02v-3.88Zm-3.85-11.39h5.02v2.4h-5.02v-2.4Zm3.77-7.59h2.93v15.41h-2.93V4.85Z"/>
        <path class="cls-1" d="m231.64,19.19h23.11v2.4h-23.11v-2.4Zm11.5-13.4c1.79,0,3.36.23,4.72.68,1.36.46,2.42,1.1,3.18,1.94.76.84,1.14,1.83,1.14,2.99s-.38,2.13-1.14,2.97c-.76.85-1.82,1.5-3.18,1.95-1.36.46-2.93.68-4.72.68s-3.36-.23-4.73-.68c-1.37-.46-2.43-1.11-3.2-1.95-.76-.85-1.14-1.84-1.14-2.97s.38-2.15,1.14-2.99c.76-.84,1.83-1.48,3.2-1.94,1.37-.46,2.94-.68,4.73-.68Zm0,2.32c-1.23,0-2.29.14-3.2.41-.9.27-1.6.65-2.11,1.13-.5.49-.75,1.07-.75,1.76s.25,1.28.75,1.77c.5.49,1.2.86,2.11,1.12.9.25,1.97.38,3.2.38s2.26-.13,3.17-.38c.9-.25,1.6-.62,2.11-1.12.5-.49.75-1.08.75-1.77s-.25-1.27-.75-1.76c-.5-.48-1.2-.86-2.11-1.13-.9-.27-1.96-.41-3.17-.41Zm-5.89,12.64h2.99v9.57h-2.99v-9.57Zm8.79,0h2.96v9.57h-2.96v-9.57Z"/>
        <path class="cls-1" d="m257.29,8.95h12.45v2.37h-12.45v-2.37Zm6.22,3.82c1.08,0,2.03.25,2.86.75s1.48,1.2,1.97,2.08.73,1.91.73,3.08-.24,2.2-.73,3.1-1.14,1.59-1.97,2.09-1.78.75-2.86.75-1.98-.25-2.82-.75-1.49-1.2-1.97-2.09c-.47-.89-.71-1.93-.71-3.1s.24-2.2.71-3.08c.47-.88,1.13-1.58,1.97-2.08s1.78-.75,2.82-.75Zm.03,2.46c-.56,0-1.06.14-1.51.43-.45.29-.8.69-1.05,1.2-.25.51-.38,1.12-.38,1.83s.13,1.32.38,1.84c.25.52.6.93,1.05,1.21.45.29.95.43,1.51.43s1.06-.14,1.49-.43c.44-.29.79-.69,1.05-1.21s.39-1.13.39-1.84-.13-1.32-.39-1.83c-.26-.51-.61-.91-1.05-1.2-.44-.29-.93-.43-1.49-.43Zm-1.45-9.68h2.9v4.88h-2.9v-4.88Zm8.73-.19h2.74v23.8h-2.74V5.35Zm1.81,10.05h4.52v2.4h-4.52v-2.4Zm3.6-10.58h2.79v25.51h-2.79V4.82Z"/>
        <path class="cls-1" d="m282.99,15.29h23.05v2.34h-23.05v-2.34Zm2.71,4.44h17.44v6.08h-14.51v2.73h-2.87v-4.8h14.51v-1.81h-14.57v-2.21Zm.06,8.15h18.11v2.23h-18.11v-2.23Zm.17-22.24h17.16v7.87h-17.16v-7.87Zm14.29,2.29h-11.44v3.32h11.44v-3.32Zm-7.17,9.07h2.9v3.74h-2.9v-3.74Z"/>
        <path class="cls-1" d="m315.2,7.17h2.37v1.2c0,1.49-.29,2.89-.87,4.2s-1.41,2.45-2.5,3.42-2.41,1.69-3.95,2.18l-1.37-2.32c1-.3,1.9-.7,2.68-1.21.78-.51,1.44-1.1,1.98-1.77.54-.67.95-1.39,1.23-2.15s.42-1.54.42-2.34v-1.2Zm-5.53-1.01h13.93v2.34h-13.93v-2.34Zm3.29,12.98h16.72v6.45h-13.79v3.18h-2.88v-5.27h13.79v-2.12h-13.84v-2.23Zm.06,8.71h17.44v2.26h-17.44v-2.26Zm2.79-20.68h2.37v1.2c0,.74.14,1.47.4,2.19s.68,1.39,1.22,2.01c.54.62,1.19,1.17,1.97,1.65.77.47,1.65.85,2.64,1.13l-1.37,2.26c-1.51-.45-2.8-1.13-3.88-2.04-1.08-.91-1.91-1.99-2.48-3.22s-.87-2.56-.87-3.98v-1.2Zm10.94-2.32h2.93v13.14h-2.93V4.85Z"/>
        <path class="cls-1" d="m186.32,44.33h2.37v4.19c0,1.47-.16,2.92-.49,4.34-.33,1.42-.79,2.75-1.4,3.98-.6,1.23-1.34,2.32-2.22,3.28-.87.96-1.86,1.72-2.96,2.27l-1.76-2.37c.99-.48,1.88-1.13,2.68-1.94.8-.81,1.48-1.73,2.04-2.76s.99-2.13,1.28-3.29c.3-1.16.45-2.33.45-3.5v-4.19Zm.53,0h2.37v4.19c0,1.13.14,2.26.42,3.36s.69,2.16,1.24,3.15c.55.99,1.2,1.88,1.97,2.67s1.62,1.4,2.57,1.87l-1.79,2.34c-1.06-.56-2-1.3-2.83-2.22s-1.53-1.98-2.12-3.17-1.04-2.46-1.35-3.82c-.32-1.36-.47-2.75-.47-4.19v-4.19Zm10.27-2.09h2.93v25.51h-2.93v-25.51Zm2.29,10.07h4.6v2.46h-4.6v-2.46Z"/>
        <path class="cls-1" d="m205.96,62h23.05v2.4h-23.05v-2.4Zm2.4-17.39h16.3v2.37h-16.3v-2.37Zm6.2,8.43h2.93v10.13h-2.93v-10.13Zm9.04-8.43h2.9v2.48c0,1.06,0,2.18-.03,3.35-.02,1.17-.09,2.47-.22,3.88-.13,1.41-.36,3.01-.7,4.77l-2.93-.34c.48-2.49.77-4.68.85-6.56.08-1.88.13-3.58.13-5.11v-2.48Z"/>
        <path class="cls-1" d="m231.67,57.62l-.31-2.37c1.51,0,3.16-.01,4.95-.04,1.8-.03,3.63-.1,5.51-.22,1.88-.12,3.67-.3,5.39-.54l.2,2.12c-1.77.3-3.58.53-5.44.68-1.86.16-3.67.26-5.43.29-1.76.04-3.38.07-4.87.08Zm1.23-13.48h11.13v2.37h-11.13v-2.37Zm2.29,15.52h2.93v5.92h-2.93v-5.92Zm0,5.19h17.36v2.37h-17.36v-2.37Zm1.26-14.87h2.87v6.36h-2.87v-6.36Zm6.42-5.83h2.87v1.48c0,.86-.02,1.91-.07,3.17s-.23,2.71-.54,4.37l-2.87-.33c.32-1.62.5-3.01.54-4.17.05-1.16.07-2.17.07-3.03v-1.48Zm5.92-1.93h2.93v19.17h-2.93v-19.17Zm1.7,8.09h4.6v2.4h-4.6v-2.4Z"/>
        <path class="cls-1" d="m258.68,44.5h11.92v9.43h-8.9v6.28h-2.96v-8.6h8.87v-4.74h-8.93v-2.37Zm.06,14.79h2.18c1.47,0,2.88-.02,4.23-.07,1.35-.05,2.69-.13,4.03-.26,1.34-.13,2.73-.31,4.16-.53l.28,2.37c-2.2.37-4.3.62-6.31.74-2.01.12-4.14.18-6.39.18h-2.18v-2.43Zm16.69-17.08h2.93v25.56h-2.93v-25.56Z"/>
        <path class="cls-1" d="m289.49,44.33h2.4v4.19c0,1.54-.17,3.03-.5,4.46-.34,1.43-.82,2.77-1.47,4.02-.64,1.25-1.41,2.34-2.32,3.29-.9.95-1.93,1.7-3.08,2.26l-1.76-2.4c1.02-.46,1.95-1.1,2.78-1.91.83-.81,1.54-1.73,2.12-2.78.59-1.04,1.04-2.16,1.35-3.35s.47-2.39.47-3.6v-4.19Zm.53,0h2.4v4.19c0,1.17.15,2.33.46,3.46.31,1.13.75,2.2,1.33,3.21.58,1,1.27,1.89,2.09,2.65.82.76,1.72,1.38,2.71,1.84l-1.7,2.34c-1.14-.54-2.15-1.26-3.04-2.18-.89-.91-1.66-1.96-2.29-3.15-.63-1.19-1.12-2.48-1.45-3.88-.34-1.4-.5-2.83-.5-4.3v-4.19Zm11.02-2.12h2.93v25.56h-2.93v-25.56Z"/>
        <path class="cls-1" d="m308.66,62.02h23.11v2.43h-23.11v-2.43Zm9.88-18.17h2.54v1.9c0,1.12-.17,2.18-.52,3.19-.34,1.01-.83,1.96-1.47,2.85-.63.88-1.38,1.68-2.25,2.39-.86.71-1.82,1.31-2.86,1.8s-2.13.86-3.27,1.1l-1.28-2.43c1-.19,1.96-.48,2.87-.88s1.75-.89,2.51-1.48c.76-.59,1.42-1.23,1.97-1.93s.98-1.44,1.28-2.23c.31-.79.46-1.59.46-2.39v-1.9Zm.56,0h2.54v1.9c0,.82.15,1.62.46,2.4.31.78.74,1.53,1.3,2.23s1.22,1.35,1.98,1.92c.76.58,1.6,1.07,2.51,1.47.91.4,1.87.69,2.87.88l-1.28,2.43c-1.14-.24-2.22-.61-3.27-1.1-1.04-.49-2-1.09-2.86-1.8-.87-.71-1.61-1.5-2.25-2.39-.63-.88-1.12-1.83-1.48-2.85-.35-1.01-.53-2.08-.53-3.19v-1.9Z"/>
        <path class="cls-1" d="m335.43,43.83h9.6v2.32h-6.78v9.13h-2.82v-11.44Zm0,10.07h1.67c1.28,0,2.42-.01,3.4-.04.99-.03,1.93-.09,2.82-.18.89-.09,1.81-.22,2.76-.39l.25,2.29c-.95.19-1.88.33-2.8.42-.92.09-1.9.15-2.93.18-1.03.03-2.2.04-3.5.04h-1.67v-2.32Zm1.95-5.11h6.7v2.23h-6.7v-2.23Zm1.56,9.85h17v8.76h-17v-8.76Zm14.15,2.29h-11.27v4.16h11.27v-4.16Zm-7.87-12.42h4.13v2.37h-4.13v-2.37Zm2.96-5.89h2.76v14.65h-2.76v-14.65Zm4.97-.39h2.79v15.27h-2.79v-15.27Z"/>
      </g>
    </g>
  </g>
</svg>