<?xml version="1.0" encoding="UTF-8"?>
<svg id="Layer_2" data-name="Layer 2" xmlns="http://www.w3.org/2000/svg" viewBox="0 0 126 72.86">
  <defs>
    <style>
      .cls-1 {
        fill: #5d5e5f;
      }

      .cls-1, .cls-2, .cls-3 {
        stroke-width: 0px;
      }

      .cls-2 {
        fill: #8ca5ba;
      }

      .cls-3 {
        fill: #3f609d;
      }
    </style>
  </defs>
  <g id="Layer_1-2" data-name="Layer 1">
    <g>
      <rect class="cls-2" x="20" y="8" width="13" height="39" transform="translate(54 1) rotate(90)"/>
      <rect class="cls-3" x="0" y="1" width="13" height="53" rx="6.5" ry="6.5"/>
      <rect class="cls-3" x="40" y="1" width="13" height="53" rx="6.5" ry="6.5"/>
      <rect class="cls-3" x="88.5" y="28.5" width="12" height="39" rx="6" ry="6" transform="translate(46.5 142.5) rotate(-90)"/>
      <rect class="cls-3" x="102.5" y="-11.5" width="12" height="35" rx="6" ry="6" transform="translate(102.5 114.5) rotate(-90)"/>
      <rect class="cls-3" x="102.5" y="-11.5" width="12" height="35" rx="6" ry="6" transform="translate(102.5 114.5) rotate(-90)"/>
      <rect class="cls-3" x="57.25" y="-4.81" width="13" height="64.76" rx="6.5" ry="6.5" transform="translate(-2.56 48.22) rotate(-40.68)"/>
      <path class="cls-3" d="m108.5,21h-13.5c-2.21,0-4-1.79-4-4v-1c0-2.21,1.79-4,4-4h11c3.31,0,6-2.69,6-6s-2.69-6-6-6h-10.5c-9.1,0-16.5,7.4-16.5,16.5s7.4,16.5,16.5,16.5h13.5c2.21,0,4,1.79,4,4v1c0,2.21-1.79,4-4,4h-11c-3.31,0-6,2.69-6,6s2.69,6,6,6h10.5c9.1,0,16.5-7.4,16.5-16.5s-7.4-16.5-16.5-16.5Z"/>
      <g>
        <path class="cls-1" d="m.75,69.47l-.17-1.21c.55,0,1.16,0,1.84-.02.68-.01,1.38-.04,2.1-.09s1.41-.12,2.08-.23l.09,1.1c-.68.14-1.37.25-2.08.3s-1.39.09-2.05.11c-.66.01-1.26.02-1.81.03Zm2.88-5.85c.49,0,.93.09,1.31.27.38.18.68.42.9.73.22.31.33.67.33,1.07s-.11.75-.33,1.06c-.22.31-.52.56-.9.74-.38.18-.82.27-1.31.27s-.91-.09-1.29-.27c-.38-.18-.68-.42-.9-.74-.22-.31-.33-.67-.33-1.06s.11-.76.33-1.07c.22-.31.52-.55.9-.73.38-.18.81-.27,1.29-.27Zm0,1.22c-.21,0-.39.03-.55.09-.16.06-.29.16-.39.28-.1.13-.14.28-.14.47s.05.34.14.46c.1.12.22.22.39.28s.34.09.55.09.4-.03.57-.09.29-.15.39-.28.14-.28.14-.46-.05-.34-.14-.47-.22-.22-.39-.28c-.16-.06-.35-.09-.57-.09Zm-.71,3.83h1.51v3.87h-1.51v-3.87Zm4.17-5.43h1.51v9.58h-1.51v-9.58Z"/>
        <path class="cls-1" d="m10.02,64.04h5.61v1.18h-5.61v-1.18Zm2.81,1.45c.46,0,.86.07,1.21.22.35.14.62.35.82.61s.3.56.3.9-.1.64-.3.9c-.2.26-.47.46-.82.61s-.75.22-1.21.22-.83-.07-1.19-.22-.63-.35-.83-.61c-.2-.26-.3-.56-.3-.9s.1-.64.3-.9.47-.47.83-.61c.35-.14.75-.22,1.19-.22Zm-1.21,3.92h6.44v3.33h-6.44v-3.33Zm1.22-2.81c-.17,0-.32.02-.46.07-.13.05-.24.12-.31.2-.07.09-.11.2-.11.34s.04.25.11.35c.07.1.17.17.31.21.13.04.29.07.46.07s.32-.02.45-.07.23-.12.3-.21c.07-.1.11-.21.11-.35s-.04-.26-.11-.34c-.07-.08-.17-.15-.3-.2s-.28-.07-.45-.07Zm-.76-3.42h1.51v1.71h-1.51v-1.71Zm4.49,7.42h-3.47v.96h3.47v-.96Zm-1.13-4.58h1.7v1.22h-1.7v-1.22Zm1.09-2.77h1.52v5.78h-1.52v-5.78Z"/>
        <path class="cls-1" d="m19.45,68.55h8.68v1.21h-8.68v-1.21Zm4.32-5c.69,0,1.3.09,1.82.27.52.18.93.43,1.23.75s.45.71.45,1.15-.15.81-.45,1.13-.71.57-1.23.75c-.52.18-1.13.27-1.82.27s-1.29-.09-1.81-.27c-.52-.18-.94-.43-1.23-.75s-.45-.7-.45-1.13.15-.83.45-1.15.71-.57,1.23-.75c.52-.18,1.13-.27,1.81-.27Zm-2.44,5.79h1.54v3.49h-1.54v-3.49Zm2.44-4.59c-.4,0-.74.04-1.03.11-.29.07-.52.18-.67.32-.16.14-.24.32-.24.53s.08.38.24.52c.16.14.38.25.67.32.29.07.64.11,1.03.11s.74-.04,1.03-.11c.29-.07.51-.18.67-.32.15-.14.23-.32.23-.52s-.08-.39-.23-.53c-.15-.14-.38-.25-.67-.32-.29-.07-.64-.11-1.03-.11Zm.88,4.59h1.54v3.49h-1.54v-3.49Z"/>
        <path class="cls-1" d="m28.9,64.64h4.54v1.2h-4.54v-1.2Zm2.29,1.57c.41,0,.77.1,1.09.29.31.2.56.47.75.81.18.35.27.75.27,1.2s-.09.85-.27,1.2c-.18.35-.43.62-.75.81-.32.2-.68.29-1.09.29s-.77-.1-1.08-.29c-.32-.2-.57-.47-.76-.81-.19-.35-.28-.75-.28-1.2s.09-.85.28-1.2c.19-.35.44-.62.76-.81.32-.2.68-.29,1.08-.29Zm0,1.25c-.15,0-.28.04-.4.12s-.21.2-.28.35c-.07.16-.1.35-.1.58s.03.42.1.58c.07.16.16.28.28.35s.25.11.4.11.29-.04.41-.11c.11-.08.2-.19.27-.35s.1-.36.1-.58-.03-.42-.1-.58c-.07-.16-.16-.28-.27-.35-.11-.08-.25-.12-.41-.12Zm-.74-3.96h1.49v1.89h-1.49v-1.89Zm3.29-.09h1.41v9.04h-1.41v-9.04Zm.96,3.69h1.51v1.21h-1.51v-1.21Zm1.04-3.86h1.44v9.58h-1.44v-9.58Z"/>
        <path class="cls-1" d="m38.37,66.98h8.67v1.18h-8.67v-1.18Zm.98,1.7h6.65v2.54h-5.15v.76h-1.49v-1.8h5.15v-.39h-5.16v-1.11Zm.01,2.98h6.89v1.13h-6.89v-1.13Zm.06-8.13h6.53v3.03h-6.53v-3.03Zm5.04,1.16h-3.55v.72h3.55v-.72Zm-2.52,3.19h1.51v1.31h-1.51v-1.31Z"/>
        <path class="cls-1" d="m50.09,64.18h1.23v.34c0,.56-.1,1.1-.29,1.6-.2.51-.5.95-.9,1.33s-.94.66-1.59.83l-.7-1.18c.41-.11.76-.26,1.04-.44.28-.18.52-.39.69-.63.18-.23.31-.48.39-.74.08-.26.12-.52.12-.78v-.34Zm-1.85-.52h5.21v1.19h-5.21v-1.19Zm1.14,4.84h6.45v2.65h-4.95v.9h-1.49v-1.95h4.94v-.46h-4.95v-1.14Zm.01,3.14h6.65v1.15h-6.65v-1.15Zm1.04-7.46h1.21v.34c0,.24.04.48.12.72.08.24.21.47.38.68.17.22.4.41.68.59s.62.31,1.02.42l-.69,1.15c-.64-.17-1.16-.43-1.56-.78-.4-.36-.7-.77-.88-1.25-.19-.48-.28-.99-.28-1.52v-.34Zm3.88-.93h1.52v4.88h-1.52v-4.88Z"/>
        <path class="cls-1" d="m62.27,63.97h1.22v1.31c0,.61-.05,1.2-.14,1.77-.1.57-.25,1.11-.46,1.6s-.48.94-.82,1.32-.74.69-1.21.92l-.9-1.21c.42-.2.78-.45,1.08-.76.29-.31.53-.66.71-1.05.18-.39.31-.81.4-1.25.08-.44.12-.89.12-1.33v-1.31Zm.31,0h1.21v1.31c0,.43.04.86.11,1.28.08.42.2.82.37,1.2s.39.72.67,1.02c.28.3.61.55,1,.74l-.9,1.21c-.45-.23-.83-.53-1.14-.9-.31-.37-.56-.8-.76-1.28-.2-.48-.34-1-.43-1.55-.09-.55-.13-1.13-.13-1.72v-1.31Zm3.62-.71h1.52v9.58h-1.52v-9.58Zm1.19,3.63h1.67v1.25h-1.67v-1.25Z"/>
        <path class="cls-1" d="m69.64,70.52h8.67v1.22h-8.67v-1.22Zm.87-6.5h6.05v1.21h-6.05v-1.21Zm2.11,3.24h1.51v3.86h-1.51v-3.86Zm3.39-3.24h1.52v.92c0,.4,0,.82-.01,1.28-.01.45-.04.95-.1,1.5-.06.55-.15,1.17-.28,1.86l-1.51-.16c.19-.97.3-1.81.33-2.53.03-.72.05-1.37.05-1.94v-.92Z"/>
        <path class="cls-1" d="m79.07,69.2l-.13-1.19c.55,0,1.16,0,1.82-.02s1.34-.04,2.04-.09c.69-.04,1.36-.11,2-.19l.09,1.07c-.66.12-1.33.21-2.02.27-.69.06-1.36.1-2.01.11-.65.02-1.25.03-1.79.04Zm.42-5.26h4.06v1.2h-4.06v-1.2Zm.82,5.84h1.51v2.08h-1.51v-2.08Zm0,1.71h6.79v1.2h-6.79v-1.2Zm.29-5.29h1.49v2.4h-1.49v-2.4Zm2.35-2.26h1.49v.63c0,.34,0,.75-.03,1.21-.02.47-.08,1-.19,1.59l-1.47-.16c.1-.58.16-1.08.17-1.51s.02-.8.02-1.14v-.63Zm2.32-.69h1.52v7.17h-1.52v-7.17Zm.94,2.87h1.67v1.23h-1.67v-1.23Z"/>
        <path class="cls-1" d="m89.04,64.04h4.55v3.78h-3v2.06h-1.54v-3.25h2.99v-1.39h-3v-1.2Zm0,5.38h.86c.58,0,1.12,0,1.62-.03.5-.02.99-.05,1.47-.09.48-.04.96-.11,1.44-.19l.14,1.21c-.75.14-1.49.23-2.23.27-.74.04-1.56.06-2.45.06h-.86v-1.23Zm6-6.18h1.51v9.62h-1.51v-9.62Z"/>
        <path class="cls-1" d="m100.29,63.97h1.23v1.31c0,.63-.05,1.24-.15,1.83-.1.59-.26,1.13-.48,1.64-.22.51-.51.95-.85,1.33-.35.38-.77.68-1.27.91l-.89-1.24c.43-.19.8-.43,1.11-.75.3-.31.56-.67.75-1.06s.34-.82.43-1.28c.09-.45.13-.91.13-1.38v-1.31Zm.31,0h1.22v1.31c0,.45.04.88.12,1.31.08.43.22.83.41,1.21s.43.72.73,1.01c.3.29.66.53,1.08.71l-.88,1.22c-.48-.21-.89-.5-1.23-.87s-.62-.8-.83-1.28c-.21-.48-.37-1-.47-1.57s-.15-1.15-.15-1.75v-1.31Zm3.88-.73h1.52v9.62h-1.52v-9.62Z"/>
        <path class="cls-1" d="m107.48,70.48h8.67v1.22h-8.67v-1.22Zm3.48-6.7h1.32v.68c0,.42-.05.82-.16,1.22-.11.39-.27.77-.48,1.12s-.48.67-.8.96-.69.54-1.12.74c-.43.21-.9.36-1.43.45l-.65-1.25c.46-.08.87-.2,1.23-.36.36-.16.67-.35.94-.57.26-.22.48-.46.65-.71.17-.25.3-.52.38-.79.08-.27.12-.54.12-.8v-.68Zm.31,0h1.31v.68c0,.27.04.54.12.81.08.27.21.54.38.8.17.26.39.49.65.71.26.21.57.4.93.56.36.16.77.28,1.24.35l-.65,1.25c-.53-.1-1-.25-1.42-.45-.42-.21-.79-.45-1.11-.74-.32-.28-.59-.6-.8-.95s-.38-.72-.48-1.12c-.11-.39-.16-.8-.16-1.23v-.68Z"/>
        <path class="cls-1" d="m117.28,63.8h3.61v1.19h-2.15v3.16h-1.46v-4.35Zm0,3.66h.67c.45,0,.86,0,1.21-.01s.7-.03,1.03-.06c.33-.03.67-.07,1.01-.12l.13,1.16c-.36.07-.71.12-1.05.14-.34.03-.7.04-1.08.05-.37,0-.79.01-1.26.01h-.67v-1.18Zm1.03-1.82h2.24v1.13h-2.24v-1.13Zm.27,3.67h6.55v3.42h-6.55v-3.42Zm5.07,1.18h-3.58v1.06h3.58v-1.06Zm-2.68-4.97h1.41v1.2h-1.41v-1.2Zm.84-2.14h1.41v5.49h-1.41v-5.49Zm1.88-.13h1.44v5.7h-1.44v-5.7Z"/>
      </g>
    </g>
  </g>
</svg>