<?xml version="1.0" encoding="UTF-8"?>
<svg id="Layer_2" data-name="Layer 2" xmlns="http://www.w3.org/2000/svg" viewBox="0 0 126 73.23">
  <defs>
    <style>
      .cls-1, .cls-2, .cls-3, .cls-4 {
        stroke-width: 0px;
      }

      .cls-2 {
        fill: #8ca5ba;
      }

      .cls-3 {
        fill: #3f609d;
      }

      .cls-4 {
        fill: #223792;
      }
    </style>
  </defs>
  <g id="Layer_2-2" data-name="Layer 2">
    <g>
      <path class="cls-1" d="m.61,69.75l-.15-1c.57,0,1.19,0,1.88-.02.69,0,1.39-.04,2.12-.09.73-.05,1.43-.12,2.1-.23l.07.9c-.69.14-1.39.24-2.11.29s-1.41.09-2.08.11c-.67.01-1.28.02-1.84.03Zm2.92-5.66c.48,0,.91.09,1.28.26.37.17.67.41.88.71s.32.65.32,1.05-.11.73-.32,1.03c-.21.3-.51.54-.88.71-.37.17-.8.26-1.28.26s-.9-.09-1.27-.26c-.37-.17-.67-.41-.88-.71-.21-.3-.32-.65-.32-1.03s.11-.75.32-1.05c.21-.3.51-.54.88-.71.37-.17.8-.26,1.27-.26Zm0,1c-.25,0-.47.04-.66.12-.19.08-.35.19-.46.35-.11.15-.17.33-.17.55s.06.38.17.53c.11.15.27.26.46.34.19.08.41.12.66.12s.48-.04.67-.12c.19-.08.35-.19.46-.34.11-.15.17-.33.17-.53s-.06-.4-.17-.55c-.11-.15-.27-.27-.46-.35-.19-.08-.42-.12-.67-.12Zm-.57,4h1.23v3.81h-1.23v-3.81Zm4.17-5.4h1.23v9.5h-1.23v-9.5Z"/>
      <path class="cls-1" d="m9.99,64.57h5.53v.97h-5.53v-.97Zm2.77,1.33c.44,0,.83.07,1.17.21s.6.34.8.6c.19.26.29.56.29.89s-.1.63-.29.89c-.19.25-.46.45-.8.59s-.73.21-1.17.21-.82-.07-1.16-.21-.61-.34-.8-.59c-.19-.25-.29-.55-.29-.89s.09-.64.28-.89.46-.46.8-.6.73-.21,1.17-.21Zm-1.17,3.97h6.3v3.23h-6.3v-3.23Zm1.17-3.06c-.21,0-.4.03-.56.1s-.29.16-.38.27c-.09.11-.14.26-.14.43s.05.31.14.43c.09.12.22.21.38.27.16.06.35.09.56.09s.4-.03.56-.09c.16-.06.29-.15.38-.27.09-.12.13-.26.13-.43s-.04-.32-.13-.43c-.09-.11-.21-.2-.38-.27s-.35-.1-.56-.1Zm-.62-3.2h1.23v1.64h-1.23v-1.64Zm4.54,7.23h-3.88v1.28h3.88v-1.28Zm-1.32-4.34h1.81v1h-1.81v-1Zm1.29-2.8h1.24v5.74h-1.24v-5.74Z"/>
      <path class="cls-1" d="m19.47,69.03h8.61v.99h-8.61v-.99Zm4.29-4.99c.68,0,1.27.09,1.78.26.51.17.91.42,1.19.73.29.32.43.69.43,1.13s-.14.79-.43,1.11c-.29.32-.68.56-1.19.73-.51.17-1.1.26-1.78.26s-1.26-.09-1.77-.26c-.51-.17-.92-.42-1.2-.73-.29-.32-.43-.69-.43-1.11s.14-.81.43-1.13c.29-.32.69-.56,1.2-.73.51-.17,1.1-.26,1.77-.26Zm-2.27,5.63h1.26v3.54h-1.26v-3.54Zm2.27-4.65c-.43,0-.81.04-1.13.13-.32.09-.57.22-.75.39-.18.17-.27.37-.27.62s.09.44.27.6c.18.17.43.3.75.39.32.09.7.13,1.13.13s.81-.04,1.13-.13c.32-.09.57-.22.74-.39s.26-.37.26-.6-.09-.45-.26-.62-.42-.3-.74-.39c-.32-.09-.7-.13-1.13-.13Zm1.01,4.65h1.25v3.54h-1.25v-3.54Z"/>
      <path class="cls-1" d="m28.97,65.18h4.6v.98h-4.6v-.98Zm2.32,1.47c.4,0,.75.09,1.06.28.31.19.55.45.73.79.18.33.27.72.27,1.16s-.09.83-.27,1.16c-.18.33-.42.6-.73.79-.31.19-.67.29-1.06.29s-.76-.09-1.07-.28-.56-.45-.74-.79c-.18-.34-.27-.73-.27-1.17s.09-.83.27-1.16c.18-.33.43-.6.74-.79.31-.19.67-.28,1.07-.28Zm0,1.02c-.19,0-.36.05-.51.15-.15.1-.27.24-.35.42-.08.18-.12.39-.12.64s.04.46.12.65c.08.19.2.33.35.42.15.09.32.14.51.14s.36-.05.51-.14c.14-.09.26-.23.35-.42.09-.19.13-.4.13-.65s-.04-.46-.13-.64c-.09-.18-.2-.32-.35-.42-.15-.1-.31-.15-.51-.15Zm-.61-3.71h1.22v1.84h-1.22v-1.84Zm3.27-.08h1.15v8.91h-1.15v-8.91Zm.76,3.72h1.62v.99h-1.62v-.99Zm1.24-3.91h1.17v9.51h-1.17v-9.51Z"/>
      <path class="cls-1" d="m38.49,67.53h8.6v.97h-8.6v-.97Zm1,1.66h6.53v2.36h-5.31v.93h-1.21v-1.79h5.31v-.59h-5.32v-.91Zm.01,3.01h6.78v.93h-6.78v-.93Zm.06-8.21h6.43v2.96h-6.43v-2.96Zm5.22.95h-4.01v1.05h4.01v-1.05Zm-2.62,3.3h1.22v1.37h-1.22v-1.37Z"/>
      <path class="cls-1" d="m50.37,64.58h1v.41c0,.56-.1,1.08-.31,1.58-.21.49-.51.92-.92,1.29-.41.37-.91.64-1.51.82l-.57-.97c.39-.11.72-.26,1.01-.45.29-.19.53-.4.72-.65.19-.24.34-.5.43-.78.09-.28.14-.55.14-.84v-.41Zm-1.97-.42h5.18v.98h-5.18v-.98Zm1.2,4.83h6.29v2.48h-5.07v1.1h-1.21v-1.96h5.06v-.67h-5.07v-.94Zm.01,3.2h6.54v.94h-6.54v-.94Zm1.03-7.61h.99v.41c0,.26.05.52.14.78.09.26.24.5.43.72.19.22.43.43.72.6.29.18.62.32.99.42l-.56.94c-.59-.17-1.09-.42-1.49-.76-.4-.34-.7-.75-.91-1.21-.21-.46-.31-.96-.31-1.49v-.41Zm4-.88h1.24v4.88h-1.24v-4.88Z"/>
      <path class="cls-1" d="m62.04,64.46h.99v1.47c0,.57-.06,1.13-.17,1.67s-.28,1.05-.5,1.52-.49.89-.82,1.25c-.33.36-.71.65-1.13.86l-.74-.98c.39-.19.73-.43,1.02-.73.3-.3.54-.65.74-1.04.2-.39.35-.8.45-1.24.1-.43.15-.87.15-1.31v-1.47Zm.24,0h.99v1.47c0,.43.05.85.14,1.26.09.41.24.81.43,1.18.19.37.43.71.71,1,.28.29.61.53.97.72l-.74.98c-.41-.21-.78-.5-1.09-.85-.31-.35-.57-.75-.78-1.21s-.37-.94-.48-1.47c-.11-.52-.16-1.06-.16-1.61v-1.47Zm3.75-.75h1.23v9.51h-1.23v-9.51Zm.96,3.7h1.7v1.03h-1.7v-1.03Z"/>
      <path class="cls-1" d="m69.37,71.02h8.59v1h-8.59v-1Zm.89-6.47h6.05v.99h-6.05v-.99Zm2.23,3.17h1.23v3.79h-1.23v-3.79Zm3.36-3.17h1.24v.92c0,.39,0,.81-.02,1.26-.01.44-.04.93-.09,1.46-.05.53-.14,1.13-.26,1.8l-1.23-.13c.19-.94.29-1.76.32-2.46.03-.71.04-1.35.04-1.92v-.92Z"/>
      <path class="cls-1" d="m78.87,69.49l-.11-.98c.55,0,1.16,0,1.83-.02.67-.01,1.35-.04,2.05-.09.7-.04,1.36-.11,2-.19l.08.88c-.65.12-1.33.21-2.02.26-.69.06-1.36.1-2.02.11-.66.01-1.26.02-1.81.03Zm.46-5.09h4.1v.98h-4.1v-.98Zm.84,5.78h1.23v2.16h-1.23v-2.16Zm0,1.86h6.55v.98h-6.55v-.98Zm.4-5.45h1.21v2.38h-1.21v-2.38Zm2.38-2.19h1.21v.57c0,.32,0,.72-.03,1.19-.02.47-.08,1.01-.2,1.61l-1.2-.13c.11-.6.17-1.11.19-1.54.02-.43.03-.8.03-1.13v-.57Zm2.23-.71h1.24v7.13h-1.24v-7.13Zm.73,2.96h1.7v1.01h-1.7v-1.01Z"/>
      <path class="cls-1" d="m88.89,64.52h4.47v3.6h-3.21v2.24h-1.24v-3.22h3.19v-1.63h-3.21v-.99Zm.02,5.46h.83c.56,0,1.09,0,1.59-.03.5-.02.99-.05,1.48-.1s.99-.11,1.51-.2l.12.99c-.79.14-1.56.23-2.31.27s-1.54.07-2.4.07h-.83v-1.01Zm6.13-6.29h1.23v9.53h-1.23v-9.53Z"/>
      <path class="cls-1" d="m100.26,64.46h1.01v1.47c0,.59-.06,1.17-.18,1.72-.12.55-.29,1.07-.52,1.55-.23.48-.52.9-.86,1.26-.34.36-.74.65-1.18.86l-.73-1.01c.39-.18.74-.42,1.05-.72.31-.3.57-.65.78-1.04.21-.39.37-.81.48-1.26.11-.45.16-.9.16-1.35v-1.47Zm.24,0h1v1.47c0,.44.05.87.16,1.3.1.42.26.82.46,1.2.21.38.46.71.76.99s.65.52,1.04.69l-.72.99c-.44-.2-.83-.48-1.16-.83s-.62-.75-.84-1.21-.4-.95-.52-1.48-.18-1.08-.18-1.65v-1.47Zm4.02-.76h1.24v9.53h-1.24v-9.53Z"/>
      <path class="cls-1" d="m107.41,71.02h8.61v1h-8.61v-1Zm3.6-6.74h1.08v.7c0,.41-.06.81-.18,1.19-.12.38-.3.74-.53,1.08-.23.33-.51.64-.83.91-.32.27-.68.5-1.08.69-.4.19-.83.33-1.28.43l-.54-1.02c.41-.08.78-.19,1.13-.34s.66-.34.93-.55c.28-.22.51-.45.71-.71s.34-.53.44-.82c.1-.29.15-.57.15-.85v-.7Zm.25,0h1.06v.7c0,.29.05.58.16.86s.25.56.44.82c.19.26.43.5.7.71.28.21.59.4.94.55s.73.27,1.13.34l-.54,1.02c-.46-.1-.89-.24-1.29-.43s-.75-.42-1.08-.69-.6-.57-.83-.91c-.23-.33-.41-.69-.53-1.08-.12-.39-.18-.79-.18-1.2v-.7Z"/>
      <path class="cls-1" d="m117.31,64.28h3.58v.97h-2.4v3.31h-1.18v-4.28Zm0,3.71h.63c.47,0,.89,0,1.25-.01.37-.01.71-.03,1.04-.06.33-.03.67-.08,1.01-.14l.11.96c-.36.07-.71.12-1.05.15-.34.03-.7.05-1.08.06-.38,0-.81.01-1.29.01h-.63v-.97Zm.83-1.87h2.4v.93h-2.4v-.93Zm.48,3.66h6.39v3.32h-6.39v-3.32Zm5.19.97h-3.98v1.38h3.98v-1.38Zm-2.84-4.74h1.49v.98h-1.49v-.98Zm1.01-2.17h1.16v5.46h-1.16v-5.46Zm1.86-.14h1.17v5.68h-1.17v-5.68Z"/>
    </g>
    <g>
      <rect class="cls-2" x="7" y="21" width="39" height="13"/>
      <path class="cls-4" d="m6.5,1h0c3.59,0,6.5,2.91,6.5,6.5v40c0,3.59-2.91,6.5-6.5,6.5h0c-3.59,0-6.5-2.91-6.5-6.5V7.5C0,3.91,2.91,1,6.5,1Z"/>
      <path class="cls-4" d="m46.5,1h0c3.59,0,6.5,2.91,6.5,6.5v40c0,3.59-2.91,6.5-6.5,6.5h0c-3.59,0-6.5-2.91-6.5-6.5V7.5c0-3.59,2.91-6.5,6.5-6.5Z"/>
      <path class="cls-4" d="m75,48h0c0-3.31,2.69-6,6-6h27c3.31,0,6,2.69,6,6h0c0,3.31-2.69,6-6,6h-27c-3.31,0-6-2.69-6-6Z"/>
      <path class="cls-3" d="m91,6h0c0-3.31,2.69-6,6-6h23c3.31,0,6,2.69,6,6h0c0,3.31-2.69,6-6,6h-23c-3.31,0-6-2.69-6-6Z"/>
      <path class="cls-4" d="m91,6h0c0-3.31,2.69-6,6-6h23c3.31,0,6,2.69,6,6h0c0,3.31-2.69,6-6,6h-23c-3.31,0-6-2.69-6-6Z"/>
      <path class="cls-4" d="m42.65,3.02h0c2.72-2.34,6.83-2.03,9.17.69l33.74,39.25c2.34,2.72,2.03,6.83-.69,9.17h0c-2.72,2.34-6.83,2.03-9.17-.69L41.96,12.18c-2.34-2.72-2.03-6.83.69-9.17Z"/>
      <path class="cls-4" d="m108.5,21h-13.5c-2.21,0-4-1.79-4-4v-1c0-2.21,1.79-4,4-4h11c3.31,0,6-2.69,6-6s-2.69-6-6-6h-10.5c-9.1,0-16.5,7.4-16.5,16.5s7.4,16.5,16.5,16.5h13.5c2.21,0,4,1.79,4,4v1c0,2.21-1.79,4-4,4h-11c-3.31,0-6,2.69-6,6s2.69,6,6,6h10.5c9.1,0,16.5-7.4,16.5-16.5s-7.4-16.5-16.5-16.5Z"/>
    </g>
  </g>
</svg>