<?xml version="1.0" encoding="UTF-8"?>
<svg id="Layer_2" data-name="Layer 2" xmlns="http://www.w3.org/2000/svg" viewBox="0 0 371.51 377.25">
  <defs>
    <style>
      .cls-1 {
        fill: #fff;
        stroke-width: 0px;
      }
    </style>
  </defs>
  <g id="Layer_1-2" data-name="Layer 1">
    <g>
      <path class="cls-1" d="m155.9,251.32c0-11.6.05-23.19-.05-34.79.1,11.6.05,23.19.05,34.79,0,8.79.04,17.58,0,26.37.03-8.79,0-17.58,0-26.37Z"/>
      <path class="cls-1" d="m143.82,269.18c0-5.8.02-11.6.02-17.39,0-5.86-.02-11.72-.02-17.58,0,5.86.02,11.72.02,17.58,0,5.8-.02,11.6-.02,17.39Z"/>
      <path class="cls-1" d="m365.94,78.89c-21.23-12.08-42.32-24.4-63.52-36.54-2.09-1.19-3.04-2.41-2.93-4.91.11-2.49.13-4.98.12-7.48-.01-2.5-.05-4.99-.05-7.49,0-4.99.02-9.98,0-14.97-.03-4.75-2.21-7.47-5.94-7.5-3.75-.03-6.01,2.69-6.02,7.41-.03,9.86-.11,19.71.06,29.57.05,2.71-.75,4.2-3.14,5.56-21.32,12.17-42.53,24.54-63.85,36.71-3.57,2.04-5.03,4.6-5.01,8.72.13,24.7.03,49.41.12,74.11,0,2.31-.72,3.56-2.69,4.68-20.12,11.52-40.21,23.08-60.23,34.77-2.28,1.33-3.87,1.21-6.07-.07-21.32-12.42-42.73-24.69-64.06-37.1-3.27-1.9-6.06-1.99-9.39-.05-22.72,13.24-45.49,26.39-68.32,39.44C1.42,205.8,0,208.39.03,212.49c.13,25.83.16,51.65-.03,77.48-.03,4.73,1.58,7.55,5.67,9.87,21.13,12,42.11,24.27,63.22,36.32,2.4,1.37,3.19,2.85,3.14,5.56-.18,9.35-.09,18.71-.06,28.07.01,4.72,2.25,7.46,5.98,7.46,3.74,0,5.97-2.74,5.98-7.46.03-9.48.09-18.97-.05-28.44-.04-2.43.69-3.74,2.84-4.96,20.13-11.49,40.22-23.07,60.23-34.77,2.31-1.35,3.91-1.11,6.05.13,21.12,12.28,42.32,24.41,63.39,36.76,3.8,2.23,6.9,2.28,10.72.05,22.27-13.03,44.61-25.93,67.02-38.7,3.92-2.23,5.65-4.88,5.61-9.51-.19-24.45-.05-48.91-.15-73.36-.01-2.57.78-3.96,3.03-5.24,21.32-12.18,42.54-24.53,63.85-36.72,3.55-2.03,5.05-4.59,5.02-8.73-.13-25.95-.16-51.9.02-77.85.03-4.6-1.64-7.31-5.57-9.55Zm-222.11,172.9c0,5.8-.02,11.6-.02,17.39,0,5.8.01,11.6.07,17.39.02,2.3-.73,3.54-2.71,4.67-20.21,11.58-40.38,23.22-60.51,34.94-1.99,1.16-3.47,1.09-5.43-.05-20.13-11.71-40.3-23.36-60.51-34.93-1.98-1.13-2.71-2.37-2.7-4.67.09-23.32.09-46.63,0-69.95-.01-2.34.82-3.52,2.76-4.63,20.21-11.58,40.38-23.22,60.51-34.93,1.98-1.16,3.43-1.16,5.42,0,20.13,11.71,40.31,23.35,60.52,34.92,1.98,1.13,2.7,2.38,2.68,4.68-.06,5.86-.08,11.72-.08,17.58,0,5.86.02,11.72.02,17.58Zm141.19,39.39c-20.21,11.59-40.38,23.23-60.52,34.94-1.97,1.14-3.45,1.14-5.44-.01-20.13-11.72-40.31-23.36-60.52-34.94-1.97-1.13-2.73-2.38-2.7-4.68.03-2.93.05-5.86.06-8.79.03-8.79,0-17.58,0-26.37,0-11.6.06-23.19-.05-34.79-.02-2.13.65-3.33,2.51-4.4,20.32-11.65,40.59-23.36,60.84-35.13,1.83-1.07,3.2-1.15,5.09-.05,20.24,11.78,40.52,23.49,60.85,35.13,1.88,1.07,2.49,2.3,2.48,4.41-.07,23.44-.08,46.89,0,70.33,0,2.2-.78,3.31-2.6,4.36Zm71.82-124.43c-20.21,11.57-40.39,23.2-60.52,34.92-2.02,1.17-3.43,1.07-5.39-.07-20.24-11.78-40.51-23.48-60.84-35.11-1.91-1.09-2.47-2.31-2.46-4.4.07-23.31.08-46.63-.01-69.94,0-2.31.76-3.53,2.73-4.66,20.2-11.58,40.37-23.24,60.49-34.96,1.95-1.13,3.43-1.21,5.43-.04,20.12,11.73,40.29,23.38,60.49,34.96,1.96,1.13,2.77,2.34,2.74,4.66-.12,11.72-.06,23.44-.06,35.16s-.07,23.19.06,34.78c.03,2.29-.67,3.56-2.66,4.7Z"/>
      <path class="cls-1" d="m299.56,22.47c0,2.5.04,4.99.05,7.49-.01-2.5-.05-4.99-.05-7.49,0-4.99.02-9.98,0-14.97.03,4.99,0,9.98,0,14.97Z"/>
      <path class="cls-1" d="m346.01,91.42c-13.6-7.82-27.19-15.66-40.78-23.49-3.78-2.17-7.5-4.44-11.34-6.5-3.23-1.73-6.46-.86-8.17,1.94-1.81,2.95-.94,6.24,2.24,8.38.51.35,1.08.62,1.62.93,12.94,7.47,25.88,14.94,38.82,22.41,4.31,2.49,8.56,5.1,12.96,7.43,4.51,2.4,9.14-.13,9.21-5.33.12-2.79-2.08-4.37-4.54-5.78Z"/>
      <path class="cls-1" d="m274.03,273.87c-1.05.32-2.04.9-3.01,1.46-16.83,9.71-33.66,19.43-50.48,29.15-.97.56-2.39,1.03-2.71,1.87-.77,2.05-1.84,4.57-1.25,6.4.59,1.82,3.05,3.04,4.63,4.46,2.27-1.01,3.8-1.53,5.18-2.33,16.95-9.75,33.89-19.53,50.81-29.32.96-.56,1.97-1.15,2.73-1.94,2.06-2.14,2.39-4.66.85-7.19-1.53-2.51-3.88-3.45-6.75-2.57Z"/>
      <path class="cls-1" d="m124.31,226.24c.96.56,1.96,1.12,3.01,1.45,3.95,1.23,7.69-1.6,7.6-7.02-.7-.84-1.79-2.84-3.46-4-3.37-2.33-7.05-4.21-10.61-6.26-13.81-7.97-27.6-15.95-41.43-23.89-4.06-2.33-7.57-1.7-9.42,1.51-1.85,3.23-.58,6.5,3.51,8.87,16.93,9.79,33.86,19.57,50.8,29.33Z"/>
      <path class="cls-1" d="m128.43,274.63c-17.74,10.14-35.42,20.37-53.09,30.63-3.38,1.96-4.26,5.31-2.54,8.27,1.72,2.95,5.11,3.94,8.42,2.05,17.84-10.21,35.65-20.48,53.37-30.89,1.62-.95,2.56-3.06,3.2-3.86.1-6.04-4.85-8.78-9.37-6.2Z"/>
      <path class="cls-1" d="m26.93,216.22c-3.87-.04-5.98,2.48-6,7.31-.03,9.84,0,19.68,0,29.52,0,7.57-.1,15.14-.01,22.7.03,2.52.08,5.04.16,7.56.07,2.12,1.44,4.96,3.13,6.12,4.02,2.75,8.66-.74,8.68-6.34.06-19.93.05-39.86,0-59.79-.01-4.52-2.24-7.04-5.95-7.08Z"/>
      <path class="cls-1" d="m20.93,253.05c0-9.84-.02-19.68,0-29.52-.03,9.84,0,19.68,0,29.52,0,7.57-.1,15.14-.01,22.7-.09-7.56.01-15.14.01-22.7Z"/>
    </g>
  </g>
</svg>