<svg width="27" height="25" viewBox="0 0 27 25" fill="none" xmlns="http://www.w3.org/2000/svg">
<path id="Vector" d="M27 11.9985C26.9983 10.4077 26.3657 8.88253 25.2408 7.75767C24.116 6.63281 22.5908 6.00013 21 5.99848H16.025C15.6612 5.97723 9.3225 5.53098 3.28625 0.468479C2.99476 0.22367 2.63946 0.0671298 2.26208 0.0172477C1.88471 -0.0326344 1.50094 0.0262133 1.15585 0.186878C0.810765 0.347543 0.518693 0.603351 0.313949 0.924254C0.109204 1.24516 0.000289667 1.61782 0 1.99848V21.9985C5.18615e-05 22.3792 0.108794 22.7521 0.313445 23.0732C0.518097 23.3943 0.810153 23.6502 1.15529 23.8111C1.50042 23.9719 1.88429 24.0308 2.26178 23.981C2.63926 23.9312 2.99468 23.7746 3.28625 23.5297C8.0075 19.5697 12.9113 18.4347 15 18.1172V22.0822C14.9996 22.4118 15.0806 22.7364 15.2359 23.0271C15.3912 23.3178 15.6159 23.5656 15.89 23.7485L17.265 24.6647C17.5308 24.8421 17.8352 24.9532 18.1527 24.9888C18.4703 25.0244 18.7917 24.9833 19.0901 24.8691C19.3885 24.7549 19.6553 24.5709 19.8679 24.3324C20.0806 24.0939 20.2331 23.808 20.3125 23.4985L21.7838 17.9535C23.2272 17.7614 24.5517 17.0518 25.5112 15.9564C26.4706 14.8611 26.9997 13.4546 27 11.9985ZM2 21.9897V1.99848C7.35125 6.48723 12.8287 7.62348 15 7.90348V16.0885C12.8313 16.3735 7.355 17.5072 2 21.9897ZM18.375 22.9897V23.0035L17 22.0872V17.9985H19.7L18.375 22.9897ZM21 15.9985H17V7.99848H21C22.0609 7.99848 23.0783 8.41991 23.8284 9.17005C24.5786 9.9202 25 10.9376 25 11.9985C25 13.0593 24.5786 14.0768 23.8284 14.8269C23.0783 15.5771 22.0609 15.9985 21 15.9985Z" fill="white"/>
</svg>
